<?xml version="1.0" encoding="UTF-8" standalone="no"?>
<!-- Generator: Adobe Illustrator 12.0.1, SVG Export Plug-In . SVG Version: 6.00 Build 51448)  -->

<svg
   xmlns:dc="http://purl.org/dc/elements/1.1/"
   xmlns:cc="http://creativecommons.org/ns#"
   xmlns:rdf="http://www.w3.org/1999/02/22-rdf-syntax-ns#"
   xmlns:svg="http://www.w3.org/2000/svg"
   xmlns="http://www.w3.org/2000/svg"
   xmlns:sodipodi="http://sodipodi.sourceforge.net/DTD/sodipodi-0.dtd"
   xmlns:inkscape="http://www.inkscape.org/namespaces/inkscape"
   id="Layer_1"
   xml:space="preserve"
   overflow="visible"
   viewBox="0 0 681.8927 493.98665"
   version="1.1"
   enable-background="new 0 0 250.851 169.275"
   inkscape:version="0.91 r13725"
   sodipodi:docname="fishing-boat-colour.svg"
   width="681.8927"
   height="493.98663"
   style="overflow:visible"><defs
     id="defs122521" /><sodipodi:namedview
     pagecolor="#ffffff"
     bordercolor="#666666"
     borderopacity="1"
     objecttolerance="10"
     gridtolerance="10"
     guidetolerance="10"
     inkscape:pageopacity="0"
     inkscape:pageshadow="2"
     inkscape:window-width="1916"
     inkscape:window-height="1035"
     id="namedview122519"
     showgrid="false"
     fit-margin-top="0"
     fit-margin-left="0"
     fit-margin-right="0"
     fit-margin-bottom="0"
     inkscape:zoom="0.44"
     inkscape:cx="139.80733"
     inkscape:cy="374.56982"
     inkscape:window-x="4"
     inkscape:window-y="1"
     inkscape:window-maximized="1"
     inkscape:current-layer="Layer_1" /><metadata
     id="metadata122517"><rdf:RDF><cc:Work><dc:format>image/svg+xml</dc:format><dc:type
           rdf:resource="http://purl.org/dc/dcmitype/StillImage" /><cc:license
           rdf:resource="http://creativecommons.org/publicdomain/zero/1.0/" /><dc:publisher><cc:Agent
             rdf:about="http://openclipart.org/"><dc:title>Openclipart</dc:title></cc:Agent></dc:publisher><dc:title>fishing boat</dc:title><dc:date>2006-09-28T21:47:31</dc:date><dc:description>fisherman fishing from a boat</dc:description><dc:source>https://openclipart.org/detail/231/fishing-boat-by-johnny_automatic</dc:source><dc:creator><cc:Agent><dc:title>johnny_automatic</dc:title></cc:Agent></dc:creator><dc:subject><rdf:Bag><rdf:li>activity</rdf:li><rdf:li>black and white</rdf:li><rdf:li>boat</rdf:li><rdf:li>fisherman</rdf:li><rdf:li>fishing</rdf:li><rdf:li>line art</rdf:li><rdf:li>outline</rdf:li><rdf:li>vintage</rdf:li></rdf:Bag></dc:subject></cc:Work><cc:License
         rdf:about="http://creativecommons.org/publicdomain/zero/1.0/"><cc:permits
           rdf:resource="http://creativecommons.org/ns#Reproduction" /><cc:permits
           rdf:resource="http://creativecommons.org/ns#Distribution" /><cc:permits
           rdf:resource="http://creativecommons.org/ns#DerivativeWorks" /></cc:License></rdf:RDF></metadata><g
     id="g123283"
     transform="scale(2.380593,2.3035996)"><rect
       ry="0"
       y="0"
       x="0"
       height="214.44119"
       width="286.43817"
       id="rect123063"
       style="opacity:1;fill:#b4d9ed;fill-opacity:1;stroke:none;stroke-width:2;stroke-linecap:round;stroke-linejoin:round;stroke-miterlimit:4;stroke-dasharray:none;stroke-opacity:1" /><path
       style="clip-rule:evenodd;fill:#deb091;fill-opacity:1;fill-rule:evenodd;stroke:#000000;stroke-width:1px;stroke-linecap:butt;stroke-linejoin:miter;stroke-opacity:1"
       d="m 167.02926,93.419947 -4.00124,3.200994 -3.20099,4.201309 2.6008,3.40105 3.80118,-4.00124 2.20069,-2.000621 z"
       id="path123073"
       inkscape:connector-curvature="0" /><path
       style="clip-rule:evenodd;fill:#9f7757;fill-opacity:1;fill-rule:evenodd;stroke:none;stroke-width:1px;stroke-linecap:butt;stroke-linejoin:miter;stroke-opacity:1"
       d="m 256.85718,40.003349 -11.20349,6.001864 -7.80242,2.200684 -15.80491,5.801803 -5.00156,4.801492 -7.60236,2.400746 -27.20845,29.409138 c 0,0 -11.80367,14.204414 -14.20442,14.204414 -2.40074,0 -9.00279,7.80243 -9.00279,7.80243 l -1.40044,8.60267 -0.80025,20.6064 6.40199,9.0028 17.20535,-3.00093 16.60516,7.20223 4.00124,3.201 3.201,1.80056 1.60049,0 16.4051,-13.60423 31.40976,-31.60982 7.20224,-17.605472 1.00031,-8.002487 -0.80025,-10.20317 0.60019,-3.000933 2.80087,-5.201616 -2.00062,-15.804911 0.20006,-7.002176 -0.80025,-3.601119 -2.80087,-2.600808 z"
       id="path123065"
       inkscape:connector-curvature="0" /><path
       style="clip-rule:evenodd;fill:#deb091;fill-opacity:1;fill-rule:evenodd;stroke:#000000;stroke-width:1px;stroke-linecap:butt;stroke-linejoin:miter;stroke-opacity:1"
       d="m 203.64064,117.82753 -3.60112,4.00124 0.60019,7.20224 0.40012,3.60112 0.20006,5.00155 9.20286,-3.00093 0.80025,-0.60018 0.40013,-8.80274 -0.60019,-6.20193 -1.00031,-0.80024 z"
       id="path123077"
       inkscape:connector-curvature="0" /><path
       style="clip-rule:evenodd;fill:#deb091;fill-opacity:1;fill-rule:evenodd;stroke:none;stroke-width:1px;stroke-linecap:butt;stroke-linejoin:miter;stroke-opacity:1"
       d="m 172.43094,111.6256 -1.80056,0.40013 -0.40012,3.40106 2.40074,10.80335 2.00063,5.80181 5.40167,2.80086 2.00063,-5.20161 -0.40013,-10.80336 1.80056,-3.00093 0.40013,-1.20037 -4.8015,-1.6005 z"
       id="path123075"
       inkscape:connector-curvature="0" /><path
       inkscape:connector-curvature="0"
       id="path123104"
       d="m 220.64592,52.20714 -6.00186,1.400436 -5.20162,6.401989 0.60019,6.401989 7.20224,7.4023 2.60081,8.002487 2.40074,3.401057 3.40106,0 4.60143,-4.201306 3.80118,-5.60174 0.60019,-1.80056 -1.20038,-2.200684 -3.80118,-4.801492 -1.80056,-2.000621 0.40013,-3.000933 -2.40075,-7.002176 -0.80025,-0.800248 -2.20068,0 z"
       style="fill:#938686;fill-opacity:1;fill-rule:evenodd;stroke:#000000;stroke-width:1.39999998;stroke-linecap:butt;stroke-linejoin:miter;stroke-miterlimit:4;stroke-dasharray:none;stroke-opacity:1" /><path
       style="clip-rule:evenodd;fill:#deb091;fill-opacity:1;fill-rule:evenodd;stroke:none;stroke-width:1px;stroke-linecap:butt;stroke-linejoin:miter;stroke-opacity:1"
       d="m 201.64002,62.210249 -6.80212,4.201305 -9.60298,2.200684 2.00062,4.60143 2.20069,2.200684 2.6008,1.200373 3.60112,-1.80056 2.00062,3.601119 10.40324,7.802425 -2.00062,12.203792 -7.80243,4.201309 -7.20224,2.00062 -0.80025,3.60112 -0.60018,3.00093 -0.20006,1.40044 2.00062,1.00031 4.40137,-0.20007 11.40354,-4.80149 11.20348,-7.80242 -0.20006,-20.606406 -10.6033,-2.200684 -0.40012,-6.401989 -1.80056,-5.201617 z"
       id="path123071"
       inkscape:connector-curvature="0" /><path
       style="clip-rule:evenodd;fill:#6e738b;fill-opacity:1;fill-rule:evenodd;stroke:none;stroke-width:1px;stroke-linecap:butt;stroke-linejoin:miter;stroke-opacity:1"
       d="m 205.84132,65.211181 -0.60018,9.402922 -5.40168,0.600187 -3.40106,4.001243 -4.40137,-2.80087 -7.00217,-0.800249 -6.60205,7.202238 -10.80336,12.403854 1.40043,6.401994 15.60485,-1.00031 3.00094,-4.801497 -8.20255,6.802117 -8.80274,1.00031 -1.00031,5.00155 1.00031,3.201 10.00311,1.00031 3.60112,0.20006 5.40168,-1.20037 2.40074,-6.40199 0.60019,-1.40044 11.60361,-3.00093 2.40074,-14.604539 2.00062,-2.80087 9.60299,-3.000933 2.80087,14.604538 -7.60236,11.603604 -11.00342,4.80149 -1.20038,3.60112 1.00031,1.40044 -0.20006,3.20099 11.20348,-2.00062 16.60516,-10.20317 -6.60205,-17.60547 -5.8018,-14.604538 -2.80087,-6.001865 -2.00062,-1.400435 -3.60112,-2.000622 z"
       id="path123069"
       inkscape:connector-curvature="0" /><path
       d="m 246.23183,45.632331 c 0.027,-0.973 1.224,-0.776 2,-1 -0.02,0.972 -1.22,0.776 -2,1 z"
       id="path122251"
       inkscape:connector-curvature="0"
       style="clip-rule:evenodd;fill-rule:evenodd" /><path
       d="m 247.23183,58.632331 c 0.027,-0.973 1.224,-0.776 2,-1 -0.02,0.972 -1.22,0.776 -2,1 z"
       id="path122253"
       inkscape:connector-curvature="0"
       style="clip-rule:evenodd;fill-rule:evenodd" /><path
       d="m 251.23183,60.632331 c 1.547,1.453 2.099,3.9 2,7 -3.8,0.801 -1.27,-4.728 -2,-7 z"
       id="path122255"
       inkscape:connector-curvature="0"
       style="clip-rule:evenodd;fill-rule:evenodd" /><path
       d="m 216.23183,64.632331 c 1.282,-2.794 3.991,1.227 5,2 -0.248,1.086 -1.989,0.678 -2,2 -2.06,-0.275 -0.94,-3.726 -3,-4 z"
       id="path122257"
       inkscape:connector-curvature="0"
       style="clip-rule:evenodd;fill-rule:evenodd" /><path
       d="m 251.23183,87.632331 c 0.247,-1.258 1.987,-1.009 2,0 -0.89,0.615 -1.79,1.208 -2,0 z"
       id="path122259"
       inkscape:connector-curvature="0"
       style="clip-rule:evenodd;fill-rule:evenodd" /><path
       d="m 250.23183,92.632331 c 0.58,-4.012 -0.84,5.915 0,0 z"
       id="path122261"
       inkscape:connector-curvature="0"
       style="clip-rule:evenodd;fill-rule:evenodd" /><path
       d="m 254.23183,102.63233 c 1.16,-3.951999 1.16,3.951 0,0 z"
       id="path122263"
       inkscape:connector-curvature="0"
       style="clip-rule:evenodd;fill-rule:evenodd" /><path
       d="m 42.235833,136.62933 c 3.311,2.355 8.648,2.685 12,5 -4.145,3.89 -18.215,1.972 -21,-2 5.169,2.194 3.304,-2.573 8,-3 l 0.5,1.5 0.5,-1.5 z"
       id="path122265"
       inkscape:connector-curvature="0"
       style="clip-rule:evenodd;fill-rule:evenodd" /><path
       d="m 260.23183,134.63233 c -8.41,3.177 -9.76,-5.764 0,0 z"
       id="path122267"
       inkscape:connector-curvature="0"
       style="clip-rule:evenodd;fill-rule:evenodd" /><path
       d="m 57.235833,138.62933 2,0 0,2 -2,0 0,-2 z"
       id="path122269"
       inkscape:connector-curvature="0"
       style="clip-rule:evenodd;fill-rule:evenodd" /><path
       d="m 263.23183,138.62933 c 1.78,0.732 0.144,1.817 0,3 -1.78,-0.73 -0.14,-1.82 0,-3 z"
       id="path122271"
       inkscape:connector-curvature="0"
       style="clip-rule:evenodd;fill-rule:evenodd" /><path
       d="m 245.23183,139.62933 c 2.318,-0.319 3.839,0.16 5,1 0.18,1.63 -6.54,2.02 -5,-1 z"
       id="path122273"
       inkscape:connector-curvature="0"
       style="clip-rule:evenodd;fill-rule:evenodd" /><path
       d="m 136.23183,148.62933 3,0 c 0.281,1.614 -0.945,1.721 -1,3 l -2,0 0,-3 z"
       id="path122275"
       inkscape:connector-curvature="0"
       style="clip-rule:evenodd;fill-rule:evenodd" /><path
       d="m 236.23183,158.62933 c -3.19,6.966 -12.631,0.161 -18,0 4.465,-6.797 8.775,-5.381 17,-3 l -0.5,1.833 1.5,1.17 z"
       id="path122277"
       inkscape:connector-curvature="0"
       style="clip-rule:evenodd;fill-rule:evenodd" /><path
       d="m 173.23183,159.62933 c 4.217,1.782 10.369,1.63 15,3 -2.22,4.113 -10.026,2.641 -14,5 -2.627,-0.707 -1.974,-4.693 -4,-6 l 1.699,-0.7 1.3,-1.3 z"
       id="path122279"
       inkscape:connector-curvature="0"
       style="clip-rule:evenodd;fill-rule:evenodd" /><path
       d="m 155.23183,160.62933 c 5.581,0.085 8.148,3.184 9,8 -5.549,0.214 -7.445,-3.222 -10,-6 l 1.5,-0.5 -0.5,-1.5 z"
       id="path122281"
       inkscape:connector-curvature="0"
       style="clip-rule:evenodd;fill-rule:evenodd" /><path
       d="m 191.23183,162.62933 c 1.16,-3.95 1.16,3.95 0,0 z"
       id="path122283"
       inkscape:connector-curvature="0"
       style="clip-rule:evenodd;fill-rule:evenodd" /><path
       d="m 200.23183,170.62933 c 0.027,-0.973 1.224,-0.776 2,-1 -0.02,0.97 -1.22,0.78 -2,1 z"
       id="path122285"
       inkscape:connector-curvature="0"
       style="clip-rule:evenodd;fill-rule:evenodd" /><path
       d="m 158.23183,179.62933 0,2 -1.5,1.166 0.5,1.834 -7,0 c 0.445,-3.221 1.526,-5.807 6,-5 l 1,0.5 1,-0.5 z"
       id="path122287"
       inkscape:connector-curvature="0"
       style="clip-rule:evenodd;fill-rule:evenodd" /><path
       d="m 165.73183,190.12933 1.5,0.5 c 2.168,-0.169 0.452,3.547 1,5 -2.36,-1.308 -6.911,-0.423 -9,-2 0.299,-2.701 4.206,-1.794 5,-4 l 1.5,0.5 z"
       id="path122289"
       inkscape:connector-curvature="0"
       style="clip-rule:evenodd;fill-rule:evenodd" /><path
       d="m 213.23183,177.62933 c 8.319,1.137 16.113,-2.971 23,0 -5.061,5.031 -16.175,5.991 -24,2 l 1.5,-0.5 -0.5,-1.5 z"
       id="path122291"
       inkscape:connector-curvature="0"
       style="clip-rule:evenodd;fill-rule:evenodd" /><path
       d="m 79.235833,185.62933 c 1.025,-2.231 6.695,-0.79 6,2 -3.146,0.48 -3.909,-1.42 -6,-2 z"
       id="path122293"
       inkscape:connector-curvature="0"
       style="clip-rule:evenodd;fill-rule:evenodd" /><path
       d="m 204.23183,58.632331 c 4.951,0.285 5.966,-3.367 10,-4 l -0.5,1.5 1.5,0.5 c -0.19,0.81 -1.004,0.997 -1,2 l -0.5,1 0.5,1 c -1.931,1.194 -5.458,3.423 -3,6 l -1,0 0,1 c -0.151,1.849 -3.387,0.614 -4,2 l -0.5,-1.5 -0.5,1.5 c -2.507,-0.827 -3.164,-3.503 -5,-5 l 0.5,-1.5 -0.5,-1.5 c 0.353,-1.313 1.76,-1.573 2,-3 l 1,0.5 1,-0.5 z"
       id="path122295"
       inkscape:connector-curvature="0"
       style="clip-rule:evenodd;fill-rule:evenodd" /><path
       d="m 259.45183,42.275331 -1.214,1.357 c -0.811,-0.19 -0.997,-1.003 -2,-1 l 0.5,-2.5 -2.5,0.5 -3,0 0.499,-1.5 -1.499,-0.5 c 1.888,-1.778 4.037,-3.295 8,-3 0.83,2.502 2.739,3.927 3,7 l -1.79,-0.357 z"
       id="path122297"
       inkscape:connector-curvature="0"
       style="clip-rule:evenodd;fill-rule:evenodd" /><path
       d="m 219.23183,41.632331 0,2 c -1.23,0.437 -2.055,1.279 -2,3 -1.735,-1.599 -2.166,-4.501 -2,-8 1.793,-0.127 2.108,1.224 4,1 l 0,2 z"
       id="path122299"
       inkscape:connector-curvature="0"
       style="clip-rule:evenodd;fill-rule:evenodd" /><path
       d="m 261.45183,88.989331 1.786,-0.357 c 0.409,2.409 -1.827,2.173 -1,5 l -1.5,-0.5 -0.5,1.5 c -2.424,0.642 -3.747,-4.764 -2,-5 l 1.5,-0.5 -0.5,-1.5 1,0 1.21,1.357 z"
       id="path122301"
       inkscape:connector-curvature="0"
       style="clip-rule:evenodd;fill-rule:evenodd" /><path
       d="m 252.73183,116.13233 1.5,-0.5 c -1.984,11.683 -11.357,15.977 -16,25 -11.188,3.146 -15.113,13.554 -26,17 l -1.301,-1.301 -1.699,-0.699 c 1.442,-2.225 2.511,-4.822 2,-9 l 1.5,-0.5 -0.5,-1.5 c 17.291,-6.043 28.891,-17.775 40,-30 l 0.5,1.503 z"
       id="path122303"
       inkscape:connector-curvature="0"
       style="clip-rule:evenodd;fill-rule:evenodd" /><path
       d="m 208.40183,160.12933 1.834,-0.5 c -0.001,0.333 0,0.666 0,1 l -1.5,1.166 0.5,1.834 -3,0 c 0.34,-2.008 -0.205,-3.129 -2,-3 0.436,-1.23 1.279,-2.055 3,-2 l 1.17,1.5 z"
       id="path122305"
       inkscape:connector-curvature="0"
       style="clip-rule:evenodd;fill-rule:evenodd" /><path
       d="m 199.73183,143.12933 0.5,1.5 -2,0 c 0.937,5.062 6.054,5.945 5,13 -4.938,2.902 -13.665,-2.242 -23,-1 -2.038,-1.63 -5.233,-2.101 -7,-4 -5.041,2.293 -11.593,3.074 -18,4 l 0.499,-1.5 -1.499,-0.5 c 2.443,-4.529 -3.773,-7.924 -2,-15 l 1.5,0.5 0.5,-1.5 1,0 1.5,0.5 1.5,-0.5 c 6.133,3.104 20.497,-4.392 22,5 4.292,-1.548 6.16,-5.605 12,-3 l -0.5,1.5 1.5,-0.5 c 0.247,1.257 1.987,1.008 2,0 l 1.5,0.5 -0.5,-1.5 c 2.48,-0.147 4.853,-0.187 5,2 l -1.5,0.5 z"
       id="path122307"
       inkscape:connector-curvature="0"
       style="clip-rule:evenodd;fill-rule:evenodd" /><path
       d="m 148.73183,104.13233 -2.5,0.5 -3,0 -0.5,-2 -0.5,-2 c 5,0.63 17.097,3.386 19,-1.999999 1.085,0.247 0.678,1.987999 2,1.999999 l -0.5,1.5 1.5,0.5 0,1 c 0.81,0.19 0.996,1.003 2,1 0.189,-0.81 1.003,-0.997 1,-2 -0.851,0.184 -0.944,-0.39 -1,-1 l 0.5,-1.5 -1.5,-0.499999 c -0.185,-0.851 0.39,-0.944 1,-1 l 1.5,1.499999 1.5,-1.499999 c 3.179,1.398999 8.946,1.502999 11,-1 l 1,0 0,-1 c 0.85,-0.184 0.942,0.39 1,1 3.562,-0.771 3.767,-4.9 6,-7 l 1.5,0.5 1.5,-0.5 c 3.374,3.062 -1.807,9.671999 1,11.999999 l -0.5,1.5 1.5,0.5 c -2.447,9.475 -19.801,-9.460999 -22,5 l -1.5,0.5 -0.5,1.5 c -2.005,-1.711 -8.107,-1.457 -9,1 l -1,-0.5 -1,-0.5 -2,0 -2.723,-0.445 -2.277,-1.555 c 0.34,-2.007 -0.205,-3.129 -2,-3 l -0.5,-2.5 z m 7.5,3.5 c 1.16,3.951 1.16,-3.952 0,0 z"
       id="path122309"
       inkscape:connector-curvature="0"
       style="clip-rule:evenodd;fill-rule:evenodd" /><path
       d="m 178.53183,83.932331 -1.3,-1.3 c -0.182,-5.182 4.945,-5.054 8,-7 l 0,7 -1.5,-0.5 -0.5,1.5 c -1.48,0.52 -2.521,1.479 -4,2 l -0.7,-1.7 z"
       id="path122311"
       inkscape:connector-curvature="0"
       style="clip-rule:evenodd;fill-rule:evenodd" /><path
       d="m 197.73183,102.13233 -1.5,-0.5 c -0.147,-2.479999 -0.187,-4.852999 2,-4.999999 -3.524,-4.593 -6.011,-12.878 -5,-19 l -0.5,-1 -0.5,-1 c 1.99,0.209 4.271,-4.24 5,-2 -1.401,0.353 -0.087,1.76 1,2 l 0.5,1.5 1.5,-0.5 c -0.693,2.364 -2.312,8.945 0,11 2.92,-2.893 1.098,1.68 1,4 5.422,0.422 1.414,-8.586 5,-10 l 1.5,0.5 0.5,-1.5 c 0.85,-0.184 0.942,0.39 1,1 l -0.5,1.5 1.5,0.5 c -3.301,3.915 1.172,13.286 -3,17.999999 -4.616,-0.616 -5.755,2.245 -10,2 l 0.5,-1.5 z"
       id="path122313"
       inkscape:connector-curvature="0"
       style="clip-rule:evenodd;fill-rule:evenodd" /><path
       d="m 215.23183,70.632331 0,-1 c 2.094,3.239 5.722,4.944 6,10 l 2,0 0,1 1,0 c -0.694,0.807 -1.557,2.739 0,3 l -0.5,1.5 1.5,0.5 c 2.686,8.968 11.904,10.944 12,19.999999 l 9,0 -0.5,1.5 0.5,1.5 c -1.309,3.106 -10.61,2.15 -7,7 l -1.5,0.5 0.5,1.5 c 0.184,0.85 -0.391,0.943 -1,1 l -0.5,-1.5 -1.5,0.5 c -0.891,-0.777 -2.259,-1.075 -4,-1 -0.827,2.826 1.409,2.59 1,5 l -0.5,1.5 1.5,0.5 c -4.172,6.478 -11.496,6.807 -20,7 -0.128,1.793 1.224,2.108 1,4 -0.811,0.189 -0.997,1.003 -2,1 l -0.5,-1.5 -1.5,-0.5 c 0.086,-5.754 0.216,-11.55 -1,-16 5.043,-4.67 10.77,-2.518 16,-7 -6.052,-1.583 -19.613,-1.708 -23,5 -3.631,-0.037 -7.895,0.561 -9,-2 1.549,-6.199 14.759,-6.479 21,-11 -1.303,-5.340999 3.94,-10.887999 3,-18.999999 -2.092,-2.18 -2.854,0.5 -6,0 l 0.5,-1.5 -0.5,-1.5 c -1.093,-5.425 2.38,-6.287 3,-10 l 1,0 z"
       id="path122315"
       inkscape:connector-curvature="0"
       style="clip-rule:evenodd;fill-rule:evenodd" /><path
       d="m 182.73183,135.12933 0.5,1.5 c -1.42,0.085 -2.832,0.165 -3,-1 l -0.5,-1 -0.5,-1 c 3.329,-5.799 0.01,-14.65 3,-19 l 1.5,0.5 1.5,-0.5 0,2 c 4.427,2.239 13.185,0.148 17,3 -0.236,4.098 -0.49,8.176 -2,11 -3.371,-1.964 -7.774,-2.893 -13,-3 -1.028,2.305 -3.442,3.224 -3,7 l -1.5,0.5 z"
       id="path122317"
       inkscape:connector-curvature="0"
       style="clip-rule:evenodd;fill-rule:evenodd" /><path
       d="m 174.73183,131.13233 -0.5,1.5 c -5.362,-2.189 -12.255,-14.69 -5,-20 l 0.5,1.5 1.5,0.5 c 4.191,4.741 3.878,8.566 5,17 l -1.5,-0.5 z"
       id="path122319"
       inkscape:connector-curvature="0"
       style="clip-rule:evenodd;fill-rule:evenodd" /><path
       inkscape:connector-curvature="0"
       id="path123249"
       d="m 191.83697,48.405959 -9.20286,4.201306 -1.00031,0.800248 -0.40012,7.002176 -3.00094,3.200995 -0.60018,3.000932 4.40137,2.200684 12.60391,-2.80087 8.00249,-4.201306 0.60019,-3.801181 -1.80056,-2.000621 -5.40168,-0.400125 -1.20038,-2.200684 -1.80056,-3.601119 z"
       style="fill:#bfb479;fill-opacity:1;fill-rule:evenodd;stroke:none;stroke-width:1px;stroke-linecap:butt;stroke-linejoin:miter;stroke-opacity:1" /><g
       transform="translate(14.381833,34.779331)"
       id="g122323"
       style="clip-rule:evenodd;fill:none;fill-rule:evenodd;stroke:#000000;stroke-linecap:round"><path
         d="m 212.35,13.853 c 2.173,-0.458 4.312,-1.468 6.5,-2"
         id="path122325"
         inkscape:connector-curvature="0"
         style="stroke-width:1.73199999" /><path
         d="m 7.354,73.353 c 4.666,11.186 15.618,19.122 20,30"
         id="path122327"
         inkscape:connector-curvature="0"
         style="stroke-width:1.57019997" /><path
         d="m 8.354,107.35 c -0.003,0.331 -0.007,0.663 -0.01,0.995 10.106,7.582 27.51,6.952 40.51,5.505"
         id="path122329"
         inkscape:connector-curvature="0"
         style="stroke-width:1.97039998" /><path
         d="m 224.35,109.85 c -0.667,0.06 -1.334,0.275 -2,0.5"
         id="path122331"
         inkscape:connector-curvature="0"
         style="stroke-width:2.61409998" /><path
         d="m 112.35,116.85 c -11.432,-0.394 -22.075,-3.75 -33,-6.5"
         id="path122333"
         inkscape:connector-curvature="0"
         style="stroke-width:2.27970004" /><path
         d="m 0.854,115.35 c 0.016,-0.272 0.032,-0.544 0.048,-0.815 11.477,0.848 23.949,6.294 36.452,6.815"
         id="path122335"
         inkscape:connector-curvature="0"
         style="stroke-width:1.70819998" /><path
         d="m 232.35,115.85 c 1.037,0.007 1.85,0.377 3,0.5"
         id="path122337"
         inkscape:connector-curvature="0"
         style="stroke-width:1.7888" /><path
         d="m 220.35,122.69 c 1.95,-0.54 4.003,-0.25 6,-0.333"
         id="path122339"
         inkscape:connector-curvature="0"
         style="stroke-width:3.08220005" /><path
         d="m 234.35,122.35 c 4.201,0.979 9.215,0.182 12.5,3.5"
         id="path122341"
         inkscape:connector-curvature="0"
         style="stroke-width:1.88680005" /><path
         d="m 4.354,125.85 c 12.477,2.833 25.045,7.268 38,3.5"
         id="path122343"
         inkscape:connector-curvature="0"
         style="stroke-width:2.01939988" /><path
         d="m 154.35,124.85 c 1.435,0.373 2.446,0.734 3.199,1.3"
         id="path122345"
         inkscape:connector-curvature="0"
         style="stroke-width:3.05500007" /><path
         d="m 127.35,126.35 c 4.54,1.334 9.473,-0.415 14,1"
         id="path122347"
         inkscape:connector-curvature="0"
         style="stroke-width:2.0474999" /><path
         d="m 60.354,137.35 c -5.62,-1.451 -1.681,-11.668 -9.45,-9.35 -0.184,0.116 -0.367,0.232 -0.55,0.35"
         id="path122349"
         inkscape:connector-curvature="0"
         style="stroke-width:1.93649995" /><path
         d="m 168.35,135.35 7,0"
         id="path122351"
         inkscape:connector-curvature="0"
         style="stroke-width:3.08759999" /><path
         d="m 151.35,155.35 c 0.3,-2.397 -0.562,-5.336 -3.009,-6.277 -2.021,-0.285 -4.11,-0.089 -5.991,-1.057"
         id="path122353"
         inkscape:connector-curvature="0"
         style="stroke-width:2.68650007" /><path
         d="m 142.85,145.35 c 0.049,-0.168 0.098,-0.336 0.146,-0.503 3.889,-1.115 7.797,-2.61 11.854,-2.997"
         id="path122355"
         inkscape:connector-curvature="0"
         style="stroke-width:1.77760005" /><path
         d="m 188.85,142.85 c 2.952,2.286 7.203,-0.021 10.5,1.5"
         id="path122357"
         inkscape:connector-curvature="0"
         style="stroke-width:2.09010005" /><path
         d="m 41.021,149.69 c 6.42,3.455 12.776,0.703 19.833,1.167"
         id="path122359"
         inkscape:connector-curvature="0"
         style="stroke-width:2.05550003" /><path
         d="m 174.85,157.85 c 5.957,3.221 18.033,-2.853 20.049,5.791 8.692,-1.729 14.396,4.134 22.451,4.709"
         id="path122361"
         inkscape:connector-curvature="0"
         style="stroke-width:1.84449995" /><path
         d="m 208.35,19.353 c 1.412,-0.49 2.581,-0.389 3.5,-0.25"
         id="path122363"
         inkscape:connector-curvature="0"
         style="stroke-width:2.44950008" /><path
         d="m 211.85,19.103 c 3.521,-2.146 7.509,-4.269 11.833,-5.083"
         id="path122365"
         inkscape:connector-curvature="0"
         style="stroke-width:1.66079998" /><path
         d="m 223.69,14.02 c 1.352,-0.677 2.233,-1.398 3.667,-1.667"
         id="path122367"
         inkscape:connector-curvature="0"
         style="stroke-width:1.41419995" /><path
         d="m 223.69,14.02 c 4.863,6.143 16.816,3.516 24.167,6.083"
         id="path122369"
         inkscape:connector-curvature="0"
         style="stroke-width:1.85710001" /><path
         d="m 247.85,20.103 c 1.104,-4.301 1.419,-9.822 -2.786,-12.607"
         id="path122371"
         inkscape:connector-curvature="0"
         style="stroke-width:2.47490001" /><path
         d="m 239.85,7.853 c 0.939,-0.94 1.724,-1.724 2.5,-2.5"
         id="path122373"
         inkscape:connector-curvature="0"
         style="stroke-width:2.1795001" /><path
         d="m 205.35,0.853 c 0.167,0.049 0.335,0.098 0.502,0.147 1.098,1.838 0.244,4.292 -1.002,5.853"
         id="path122375"
         inkscape:connector-curvature="0"
         style="stroke-width:1.70560002" /><path
         d="m 204.85,6.853 c 10.634,1.265 21.559,-3 32.499,-2.5"
         id="path122377"
         inkscape:connector-curvature="0"
         style="stroke-width:2.15249991" /><path
         d="m 247.85,20.103 c 0.912,6.58 2.547,13.613 0.877,20.247 -0.373,0.275 -1.212,0.923 -2.044,1.669"
         id="path122379"
         inkscape:connector-curvature="0"
         style="stroke-width:2.80040002" /><path
         d="m 246.69,42.02 c 0.182,0.855 0.147,3.304 0.167,4.833"
         id="path122381"
         inkscape:connector-curvature="0"
         style="stroke-width:2.12129998" /><path
         d="m 246.85,46.853 c 0.744,2.312 0.632,4.967 0.214,7.357"
         id="path122383"
         inkscape:connector-curvature="0"
         style="stroke-width:3.23329997" /><path
         d="m 208.78,131.78 c 2.846,-0.424 5.719,-1.17 8.572,-0.428"
         id="path122385"
         inkscape:connector-curvature="0"
         style="stroke-width:4.44810009" /><path
         d="m 208.78,131.78 c -0.31,1.049 -0.385,2.188 -0.5,2.929"
         id="path122387"
         inkscape:connector-curvature="0"
         style="stroke-width:5.14779997" /><path
         d="m 208.28,134.71 c 0.399,1.571 2.099,2.194 3.572,2.144"
         id="path122389"
         inkscape:connector-curvature="0"
         style="stroke-width:3" /><path
         d="m 208.28,134.71 c -1.464,0.401 -2.638,0.543 -3.928,1.144"
         id="path122391"
         inkscape:connector-curvature="0"
         style="stroke-width:2.93260002" /><path
         d="m 208.78,131.78 c -3.672,-4.205 -9.538,-3.43 -14.428,-4.762"
         id="path122393"
         inkscape:connector-curvature="0"
         style="stroke-width:3.25139999" /><path
         d="m 194.02,125.35 c 0.755,-1.97 1.619,-2.689 2.533,-3.801"
         id="path122395"
         inkscape:connector-curvature="0"
         style="stroke-width:3.03309989" /><path
         d="m 198.35,111.35 c -3.732,-3.018 -8.687,-1.157 -13,-3"
         id="path122397"
         inkscape:connector-curvature="0"
         style="stroke-width:2.4152" /><path
         d="m 114.35,123.85 c 9.283,0.42 17.662,-5.688 26.999,-3.5"
         id="path122399"
         inkscape:connector-curvature="0"
         style="stroke-width:1.97669995" /><path
         d="m 10.354,66.353 c 38.968,-4.905 78.754,-1.502 118,1.5"
         id="path122401"
         inkscape:connector-curvature="0"
         style="stroke-width:2.41580009" /><path
         d="m 148.35,67.353 c 1.404,-0.642 2.536,-1.359 4,-2"
         id="path122403"
         inkscape:connector-curvature="0"
         style="stroke-width:2" /><path
         d="m 150.35,61.353 c 0.353,-0.916 1.889,-1.619 3.5,-2"
         id="path122405"
         inkscape:connector-curvature="0"
         style="stroke-width:1.77279997" /><path
         d="m 153.85,59.353 c 2.021,-4.881 6.863,-6.614 10.3,-10.2"
         id="path122407"
         inkscape:connector-curvature="0"
         style="stroke-width:4.8579998" /><path
         d="m 169.35,53.353 c 0.545,-1.925 0.849,-4.094 0,-6"
         id="path122409"
         inkscape:connector-curvature="0"
         style="stroke-width:1.93060005" /><path
         d="m 153.85,59.353 c -0.553,1.956 -0.503,3.987 -0.5,6"
         id="path122411"
         inkscape:connector-curvature="0"
         style="stroke-width:3.22930002" /><path
         d="m 166.85,62.853 c -0.451,-0.883 -0.432,-2.235 -0.5,-3.5"
         id="path122413"
         inkscape:connector-curvature="0"
         style="stroke-width:1.2536" /><path
         d="m 175.35,56.353 c -0.288,-1.333 -0.439,-2.667 -0.5,-4"
         id="path122415"
         inkscape:connector-curvature="0"
         style="stroke-width:2.44950008" /><path
         d="m 177.35,69.353 c 2.083,-0.683 4.368,-0.169 6,-2"
         id="path122417"
         inkscape:connector-curvature="0"
         style="stroke-width:2.16020012" /><path
         d="m 167.35,26.353 c -0.68,-2.4 -0.764,-5.198 -0.198,-7.604 3.288,-1.917 6.524,-3.933 10.181,-4.867 2.949,1.29 3.356,4.787 4.351,7.47"
         id="path122419"
         inkscape:connector-curvature="0"
         style="stroke-width:1.97150004" /><path
         d="m 181.69,21.353 c 2.748,-1.231 6.6,-0.269 7.167,3"
         id="path122421"
         inkscape:connector-curvature="0"
         style="stroke-width:1.85160005" /><path
         d="m 167.35,26.353 c -1.961,1.243 -4.087,3.103 -4.066,5.609 0.396,0.479 0.702,0.672 1.004,0.852 0.248,0.228 0.482,0.498 0.717,0.77 1.827,0.6 3.822,-0.031 5.679,0.436"
         id="path122423"
         inkscape:connector-curvature="0"
         style="stroke-width:1.80920005" /><path
         d="m 170.69,34.02 c 3.687,-1.472 8.143,-1.258 12.066,-3.067"
         id="path122425"
         inkscape:connector-curvature="0"
         style="stroke-width:2.97210002" /><path
         d="m 182.75,30.953 c 0.886,-1.645 2.001,-1.923 3.601,-2.6"
         id="path122427"
         inkscape:connector-curvature="0"
         style="stroke-width:2.44950008" /><path
         d="m 195.85,31.853 c 1.935,1.194 3.703,1.983 5,4"
         id="path122429"
         inkscape:connector-curvature="0"
         style="stroke-width:1.30379999" /><path
         d="m 208.85,45.853 c 2.146,-0.755 4.31,-3.863 3.5,-6"
         id="path122431"
         inkscape:connector-curvature="0"
         style="stroke-width:1.37" /><path
         d="m 220.35,39.353 c -0.443,-1.134 -0.991,-1.718 -1.5,-2.5"
         id="path122433"
         inkscape:connector-curvature="0"
         style="stroke-width:2.44950008" /><path
         d="m 211.85,19.103 c 0.913,3.866 3.23,7.232 2.261,11.292 0.387,0.593 0.867,1.038 1.352,1.475 0.967,10e-4 1.801,-0.337 2.626,-0.788 0.412,-1.161 1.702,-1.49 3.262,-2.729"
         id="path122435"
         inkscape:connector-curvature="0"
         style="stroke-width:2.12470007" /><path
         d="m 221.35,28.353 c 0.52,-1.336 0.067,-3.393 -0.5,-4.5"
         id="path122437"
         inkscape:connector-curvature="0"
         style="stroke-width:1.95790005" /><path
         d="m 221.35,28.353 c 0.775,1.613 1.743,2.928 3.5,3.5"
         id="path122439"
         inkscape:connector-curvature="0"
         style="stroke-width:1.41419995" /><path
         d="m 246.69,42.02 c -8.505,-2.596 -17.759,-0.535 -26.333,-2.667"
         id="path122441"
         inkscape:connector-curvature="0"
         style="stroke-width:1.50810003" /><path
         d="m 220.35,39.353 c -2.417,1.092 -2.985,3.814 -4,6"
         id="path122443"
         inkscape:connector-curvature="0"
         style="stroke-width:1.64549994" /><path
         d="m 167.35,26.353 c 5.105,0.399 11.113,-0.563 14.333,-5"
         id="path122445"
         inkscape:connector-curvature="0"
         style="stroke-width:3.47099996" /><path
         d="m 199.35,24.853 c 3.948,0.363 6.431,-3.235 9,-5.5"
         id="path122447"
         inkscape:connector-curvature="0"
         style="stroke-width:2.06830001" /><path
         d="m 208.35,19.353 c -0.29,-0.378 -0.579,-0.755 -0.869,-1.133 -1.452,-0.501 -2.796,-0.349 -4.12,-0.217 -1.093,1.024 -2.242,2.26 -4.011,3.351"
         id="path122449"
         inkscape:connector-curvature="0"
         style="stroke-width:2.40190005" /><path
         d="m 185.35,40.353 c -0.321,0.471 -0.61,1.228 -1,2"
         id="path122451"
         inkscape:connector-curvature="0"
         style="stroke-width:1.91480005" /><path
         d="m 193.35,47.353 c -0.585,-1.826 -0.514,-3.087 0,-4"
         id="path122453"
         inkscape:connector-curvature="0"
         style="stroke-width:2.03539991" /><path
         d="m 194.35,48.353 c 1,-0.321 1.999,-0.61 3,-1"
         id="path122455"
         inkscape:connector-curvature="0"
         style="stroke-width:2.3979001" /><path
         d="m 191.35,39.353 0,-6"
         id="path122457"
         inkscape:connector-curvature="0"
         style="stroke-width:1.20179999" /><path
         d="m 182.75,30.953 c 0.425,0.917 0.874,1.885 1.101,2.9"
         id="path122459"
         inkscape:connector-curvature="0"
         style="stroke-width:2.86360002" /><path
         d="m 170.69,34.02 c 1.61,3.121 3.526,8.089 7.667,7.833"
         id="path122461"
         inkscape:connector-curvature="0"
         style="stroke-width:1.79949999" /><path
         d="m 231.35,72.353 c 1.333,-0.288 2.666,-0.439 4,-0.5"
         id="path122463"
         inkscape:connector-curvature="0"
         style="stroke-width:2.52489996" /><path
         d="m 223.35,81.353 c 1.333,0.45 2.666,0.431 4,0.5"
         id="path122465"
         inkscape:connector-curvature="0"
         style="stroke-width:2.12129998" /><path
         d="m 222.35,82.353 c -0.699,1.675 -0.072,3.453 0.094,4.576 -1.208,1.577 -3.558,0.375 -5.094,1.424"
         id="path122467"
         inkscape:connector-curvature="0"
         style="stroke-width:2.33809996" /><path
         d="m 197.35,99.353 c -8.435,4.592 -20.336,5.171 -29,1"
         id="path122469"
         inkscape:connector-curvature="0"
         style="stroke-width:1.99539995" /><path
         d="m 165.35,99.853 c -2.143,-0.011 -4.066,-1.633 -5,-3.5"
         id="path122471"
         inkscape:connector-curvature="0"
         style="stroke-width:2.09759998" /><path
         d="m 155.35,79.353 c 0.32,-1 0.609,-2 1,-3"
         id="path122473"
         inkscape:connector-curvature="0"
         style="stroke-width:2.34520006" /><path
         d="m 156.35,76.353 c -0.334,-0.333 -0.667,-0.667 -1,-1"
         id="path122475"
         inkscape:connector-curvature="0"
         style="stroke-width:2.8283999" /><path
         d="m 140.85,85.853 c 0.006,1.171 0.009,2.962 -0.072,3.928"
         id="path122477"
         inkscape:connector-curvature="0"
         style="stroke-width:6.04150009" /><path
         d="m 140.78,89.781 c 1.699,1.514 1.751,3.995 1.405,6.072"
         id="path122479"
         inkscape:connector-curvature="0"
         style="stroke-width:3.29979992" /><path
         d="m 142.19,95.853 c 0.346,2.811 0.083,5.67 0.167,8.5"
         id="path122481"
         inkscape:connector-curvature="0"
         style="stroke-width:3.08220005" /><path
         d="m 177.35,107.35 c 1.666,-1.17 3.333,-1.026 5,0"
         id="path122483"
         inkscape:connector-curvature="0"
         style="stroke-width:1.2536" /><path
         d="m 238.35,81.353 c 3.213,-7.26 8.23,-14.87 8,-23"
         id="path122485"
         inkscape:connector-curvature="0"
         style="stroke-width:1.81260002" /><path
         d="m 243.35,47.853 c -8.804,-1.856 -18.03,-1.434 -27,-2.5"
         id="path122487"
         inkscape:connector-curvature="0"
         style="stroke-width:2.0388" /><path
         d="m 216.35,45.353 c -2.35,1.622 -4.032,4.244 -7,5"
         id="path122489"
         inkscape:connector-curvature="0"
         style="stroke-width:1.81050003" /><path
         d="m 156.35,76.353 c 4.305,1.211 8.623,1.959 13,3"
         id="path122491"
         inkscape:connector-curvature="0"
         style="stroke-width:2.0309999" /><path
         d="m 169.35,79.353 c 1.666,-0.852 3.333,-1.52 5,-2"
         id="path122493"
         inkscape:connector-curvature="0"
         style="stroke-width:3.03679991" /><path
         d="m 169.35,79.353 0,1"
         id="path122495"
         inkscape:connector-curvature="0"
         style="stroke-width:3" /><path
         d="m 246.85,46.853 c -1.351,0.321 -2.382,0.61 -3.5,1"
         id="path122497"
         inkscape:connector-curvature="0"
         style="stroke-width:3.13579988" /><path
         d="m 243.35,47.853 c -0.053,2.294 -0.59,3.059 -0.329,3.985 0.717,0.319 1.33,1.37 2.329,2.515"
         id="path122499"
         inkscape:connector-curvature="0"
         style="stroke-width:1.58109999" /><path
         d="m 134.35,69.353 c -1.162,1.692 -1.714,3.756 -1.451,5.798 1.481,1.913 4.115,1.917 6.229,1.257"
         id="path122501"
         inkscape:connector-curvature="0"
         style="stroke-width:3.03679991" /><path
         d="m 139.13,76.408 c 1.585,3.096 -0.972,6.836 1.723,9.445"
         id="path122503"
         inkscape:connector-curvature="0"
         style="stroke-width:3.02760005" /><path
         d="m 140.85,85.853 c 2.808,-2.014 3.196,-5.481 4,-8.5"
         id="path122505"
         inkscape:connector-curvature="0"
         style="stroke-width:2.52979994" /><path
         d="m 138.52,95.853 3.667,0"
         id="path122507"
         inkscape:connector-curvature="0"
         style="stroke-width:2.08170009" /><path
         d="m 140.78,89.781 c -2.568,0.841 -2.685,3.851 -2.262,6.072"
         id="path122509"
         inkscape:connector-curvature="0"
         style="stroke-width:3.53550005" /><path
         d="m 138.52,95.853 c -1.342,3.051 -0.57,6.608 0.834,9.5"
         id="path122511"
         inkscape:connector-curvature="0"
         style="stroke-width:2.46309996" /><path
         d="m 200.35,105.35 c 1.333,-0.418 2.666,-1.049 4,-2"
         id="path122513"
         inkscape:connector-curvature="0"
         style="stroke-width:1.17379999" /><path
         d="m 238.35,112.35 c 0.753,-0.58 1.625,-1.041 2,-2"
         id="path122515"
         inkscape:connector-curvature="0"
         style="stroke-width:1.41419995" /></g><path
       style="clip-rule:evenodd;fill:none;fill-rule:evenodd;stroke:#000000;stroke-width:2;stroke-linecap:round;stroke-linejoin:round;stroke-miterlimit:4;stroke-dasharray:none;stroke-opacity:1"
       d="m 201.23989,115.62685 c 0,0 -0.74125,4.3835 0.80025,4.60143 3.71558,0.52529 10.20317,-2.40075 10.20317,-2.40075"
       id="path123079"
       inkscape:connector-curvature="0"
       sodipodi:nodetypes="csc" /><path
       style="clip-rule:evenodd;opacity:1;fill:#000000;fill-opacity:1;fill-rule:evenodd;stroke:none;stroke-width:2;stroke-linecap:round;stroke-linejoin:round;stroke-miterlimit:4;stroke-dasharray:none;stroke-opacity:1"
       id="path123081"
       d="m 192.94383,105.55793 c -0.0862,0.75765 -0.2013,1.51013 -0.34242,2.25945 -0.11274,0.66665 -0.23261,1.33231 -0.34121,1.99971 -0.0484,0.41596 -0.15778,0.8203 -0.23076,1.23198 -0.047,0.22955 -0.0569,0.46315 -0.0645,0.69652 0.0187,0.19156 -0.01,0.35378 -0.0873,0.52736 -0.0679,0.10312 -0.0955,0.21491 -0.10267,0.33958 0.006,0.0947 -0.11376,-0.0411 0.13417,-0.0556 0.23527,-0.0885 0.25448,0.23635 0.41152,0.2873 0.14443,0.13466 0.20252,0.3458 0.234,0.53545 0.002,0.0877 0.0709,0.20814 0.1633,0.23541 0.0964,0.12499 0.19647,0.12554 0.34664,0.13859 0.11384,0.005 0.22817,-0.002 0.34221,-0.004 0.20561,0.002 0.41123,0.002 0.61683,-5.7e-4 0.15804,-7.1e-4 0.31607,-2.4e-4 0.4741,-0.002 0.13383,1.9e-4 0.26766,9.2e-4 0.40148,-1.2e-4 0.18055,0.0268 0.31827,-0.0298 0.48529,-0.0842 0.0377,-0.0125 0.0753,-0.0249 0.11302,-0.0374 0,0 -2.36075,1.82014 -2.36075,1.82014 l 0,0 c -0.0389,0.01 -0.0778,0.0199 -0.11667,0.0299 -0.17913,0.0369 -0.3585,0.03 -0.54071,0.0297 -0.13366,-10e-4 -0.26733,-3.2e-4 -0.40099,-1.2e-4 -0.15655,-0.001 -0.31311,-6.9e-4 -0.46966,-8e-4 -0.2074,-0.001 -0.41479,1.9e-4 -0.62217,0.003 -0.1264,-0.002 -0.2537,-0.0112 -0.37578,-0.0465 -0.15967,-0.0495 -0.29636,-0.1278 -0.41557,-0.24607 -0.1206,-0.11099 -0.27513,-0.2817 -0.28692,-0.44604 -0.009,-0.12293 -0.0142,-0.25916 -0.11899,-0.34139 -0.001,-0.001 -0.13882,-0.15615 -0.14791,-0.15582 -0.0119,4.4e-4 0.008,0.031 -0.003,0.0356 -0.0487,0.0205 -0.11025,-0.0318 -0.15805,-0.0106 -0.17305,-0.029 -0.38409,-0.13551 -0.3775,-0.34224 0.009,-0.14602 -0.005,-0.31775 0.0494,-0.45064 0.0986,-0.17091 0.17152,-0.20118 0.15336,-0.40869 -5e-5,-0.24893 0.008,-0.49862 0.0473,-0.74476 0.0826,-0.41261 0.19283,-0.82043 0.24739,-1.23625 0.12799,-0.6707 0.25235,-1.34138 0.36159,-2.01511 0.14732,-0.73598 0.27895,-1.47531 0.31978,-2.22619 0,0 2.6617,-1.31477 2.6617,-1.31477 z"
       inkscape:connector-curvature="0" /><path
       style="clip-rule:evenodd;fill:none;fill-rule:evenodd;stroke:#000000;stroke-width:1.39999998;stroke-linecap:butt;stroke-linejoin:miter;stroke-miterlimit:4;stroke-dasharray:none;stroke-opacity:1"
       d="m 22.784444,109.42492 c -1.683654,-1.61625 -1.393873,-4.29656 -0.862503,-6.34378 0.572151,-1.05273 1.872092,-1.42338 2.463004,-2.45896"
       id="path123083"
       inkscape:connector-curvature="0" /><path
       inkscape:connector-curvature="0"
       id="path123096"
       d="m 255.19095,41.869059 c -2.20965,0.781118 -4.0537,2.311251 -6.38194,2.838765 -1.61938,0.629298 -3.17069,1.244175 -4.94006,1.33388 -1.00774,0.155694 -1.9231,0.647956 -2.95091,0.698811"
       style="fill:none;fill-rule:evenodd;stroke:#000000;stroke-width:1.62951267;stroke-linecap:round;stroke-linejoin:round;stroke-miterlimit:4;stroke-dasharray:none;stroke-opacity:1" /><path
       inkscape:connector-curvature="0"
       id="path123247"
       d="m 205.04107,73.613792 c -0.0667,0.26675 -0.13337,0.533499 -0.20006,0.800249 -0.13337,0 -0.30581,-0.09431 -0.40012,0 -0.0667,0.06669 0.26675,0.133375 0.20006,0.200062 -0.0943,0.09431 -0.26675,0 -0.40012,0 -0.0667,0 0.1529,-0.04716 0.20006,0 0.0472,0.04715 0.0472,0.152907 0,0.200062 -0.0943,0.09431 -0.40013,-0.133374 -0.40013,0 0,0.09431 0.26675,0.133375 0.20007,0.200062 -0.0943,0.09431 -0.2736,-0.04218 -0.40013,0 -0.89891,0.299638 0.92055,0.200063 -0.40012,0.200063 -0.26675,0 0.73356,-0.06669 0.20006,0.200062 -0.11929,0.05965 -0.26675,0 -0.40012,0 -0.0667,0 0.2597,-0.02982 0.20006,0 -0.18862,0.09431 -0.41157,0.105752 -0.60019,0.200062 -0.0597,0.02982 0.26675,0 0.20006,0 -0.13337,0 -0.26675,0 -0.40012,0 -0.0667,0 -0.13338,0 -0.20006,0 -0.0667,0 -0.15291,-0.04715 -0.20007,0 -0.0472,0.04716 0.0472,0.152907 0,0.200062 -0.0472,0.04715 -0.13337,0 -0.20006,0 -0.0667,0 -0.13337,0 -0.20006,0 -0.0667,0 -0.20006,0.06669 -0.20006,0 0,-0.06669 0.24722,0.04715 0.20006,0 -0.78079,-0.780789 -0.10744,0.04631 -0.60019,-0.200062 -0.0844,-0.04218 -0.1157,-0.157885 -0.20006,-0.200062 -0.0596,-0.02982 -0.20006,0.06669 -0.20006,0 0,-0.06669 0.24722,0.04715 0.20006,0 -0.10544,-0.105442 -0.29468,-0.09462 -0.40012,-0.200062 -0.0472,-0.04715 0.26675,0 0.20006,0 -0.33344,0 -0.66687,0 -1.00031,0"
       style="fill:none;fill-rule:evenodd;stroke:#000000;stroke-width:1px;stroke-linecap:butt;stroke-linejoin:miter;stroke-opacity:1" /><path
       inkscape:connector-curvature="0"
       d="m 200.31874,156.77359 c 0.24796,0.59868 0.65137,1.11389 1.03528,1.63008 0.34052,0.30258 0.63932,0.66414 1.00173,0.94145 0.12985,0.1863 0.3385,0.25188 0.50777,0.3835 0.29098,0.18517 0.59712,0.33421 0.90588,0.49149 0.3433,0.22469 0.73831,0.33764 1.10416,0.52001 0.23249,0.13736 0.48904,0.0835 0.74688,0.12699 0.37641,0.11503 0.76913,0.1057 1.13798,0.25502 0.0941,0.007 0.22939,0.0762 0.32651,0.0474 0.0228,-0.007 0.0727,-0.0602 0.0519,-0.0487 -2.09214,1.15138 -2.86081,1.72039 -2.14593,1.19361 0.16682,-0.0357 0.0228,-0.17859 -0.0362,-0.25741 -0.0898,-0.19371 -0.29966,-0.227 -0.45381,-0.33964 -0.28149,-0.13177 -0.56359,-0.26505 -0.87197,-0.33818 -0.30142,-0.0704 -0.61123,-0.0875 -0.91962,-0.0936 -0.22891,-0.011 -0.436,-0.14636 -0.66303,-0.17906 -0.26372,-0.01 -0.48723,-0.14704 -0.74742,-0.17437 -0.26992,-0.11519 -0.37688,-0.38691 -0.56859,-0.58356 -0.0953,-0.11314 -0.19931,-0.27648 -0.36356,-0.28316 -0.12671,-0.0438 -0.21693,0.0766 -0.34009,0.0708 -0.10831,-0.005 -0.30235,-0.083 -0.39835,-0.11711 -0.43972,-0.0578 -0.8304,-0.27466 -1.24322,-0.41753 -0.0526,-0.0104 -0.10517,-0.0207 -0.15776,-0.0311 0,0 2.12795,-1.46431 2.12795,-1.46431 l 0,0 c 0.0577,0.0185 0.11542,0.037 0.17313,0.0555 0.39693,0.16863 0.79775,0.32202 1.22463,0.39745 0.061,0.0105 0.12108,0.0288 0.18288,0.0315 0.19959,0.009 0.39607,-0.0929 0.58769,0.0227 0.17138,0.0997 0.30753,0.23419 0.42427,0.39455 0.13902,0.16798 0.24315,0.39423 0.47567,0.43811 0.25155,0.0633 0.49435,0.15927 0.75463,0.18763 0.20675,0.0678 0.41485,0.14214 0.63467,0.13825 0.31779,0.0225 0.63573,0.0585 0.9427,0.14795 0.32043,0.0994 0.62595,0.23441 0.9225,0.39139 0.20311,0.094 0.39687,0.23076 0.51261,0.42701 0.12393,0.18265 0.26345,0.35359 0.2081,0.58815 -0.8297,0.95207 -1.74616,1.63946 -2.78049,1.24332 -0.36165,-0.1033 -0.73817,-0.12533 -1.10425,-0.20957 -0.28643,-0.0183 -0.5559,-0.0406 -0.80619,-0.19725 -0.35669,-0.18569 -0.74143,-0.31174 -1.08265,-0.52827 -0.32648,-0.15073 -0.64447,-0.31674 -0.94741,-0.51087 -0.19395,-0.11233 -0.36489,-0.23918 -0.5146,-0.40922 -0.34986,-0.32104 -0.68177,-0.66438 -1.00997,-1.00686 -0.39233,-0.53438 -0.79114,-1.0691 -1.07999,-1.66894 0,0 2.24555,-1.26511 2.24555,-1.26511 z"
       id="path123251"
       style="opacity:1;fill:#000000;fill-opacity:1;stroke:none;stroke-width:1.39999998;stroke-linecap:round;stroke-linejoin:round;stroke-miterlimit:4;stroke-dasharray:none;stroke-opacity:1" /><path
       inkscape:connector-curvature="0"
       d="m 167.06779,92.573801 c -0.3851,0.24316 -0.70599,0.563637 -1.04216,0.86629 -0.27714,0.287224 -0.54787,0.580158 -0.8394,0.85316 -0.11098,0.09275 -0.2109,0.193307 -0.33654,0.266361 -7.70578,4.480656 5.14205,-2.986695 -2.49886,1.458356 4.10989,-2.26209 2.45276,-1.616624 1.79621,-0.944647 -0.11654,0.138243 -0.2895,0.231008 -0.40079,0.369771 -0.12147,0.0804 -0.1759,0.229354 -0.28819,0.315494 -0.10853,0.140711 -0.18573,0.300435 -0.31256,0.433531 -0.16009,0.113006 -0.24494,0.287159 -0.36709,0.43231 -0.13952,0.06264 -0.11095,0.141062 -0.20901,0.247863 -0.57845,0.744048 -1.89328,1.132188 -2.45433,1.451219 -0.0258,0.01465 -0.0982,0.06625 -0.0725,0.05142 2.16509,-1.251856 2.74217,-1.861189 2.10592,-1.201156 -0.53224,0.437844 -5.50389,3.210837 -0.35334,0.261742 0.0701,-0.04017 -0.13277,0.09229 -0.19787,0.140209 -0.7499,0.590486 -1.74627,0.985556 -2.48368,1.468668 -0.68272,0.447279 1.41436,-0.814995 2.12268,-1.220509 0.0564,-0.03227 -0.10939,0.07014 -0.16285,0.107032 -0.0247,0.01441 -0.0541,0.02282 -0.0741,0.04323 -0.0237,0.02415 -0.033,0.05934 -0.0533,0.08648 -0.0861,0.115463 -0.19326,0.215327 -0.28897,0.322709 -0.1277,0.198913 -0.2225,0.418733 -0.31545,0.636409 -0.0629,0.268963 -0.22617,0.467091 -0.38198,0.682354 -0.10262,0.19073 -0.13336,0.410333 -0.14145,0.624413 -0.0129,0.16318 -0.004,0.32682 -0.006,0.49027 10e-4,0.16424 0.005,0.32848 0.003,0.49273 0.004,0.1166 9.6e-4,0.23329 0.002,0.34994 -0.003,0.14226 -5.9e-4,0.28443 -0.001,0.42669 -0.0106,0.0232 0.0191,0.17336 0.002,0.18219 -0.009,0.005 -0.0574,-0.0951 0.0319,-0.0387 0,0 -2.18959,1.41738 -2.18959,1.41738 l 0,0 c -0.14865,-0.084 -0.18268,-0.21767 -0.16636,-0.37755 -5.3e-4,-0.14188 0.002,-0.28368 -0.001,-0.42556 0.001,-0.11727 -0.002,-0.23456 0.002,-0.3518 -0.002,-0.16425 7.2e-4,-0.3285 -3.2e-4,-0.49277 -0.005,-0.1679 -0.002,-0.33581 -0.006,-0.50376 0.02,-0.24436 0.0329,-0.49138 0.10251,-0.72832 0.0288,-0.0742 0.0635,-0.18667 0.12162,-0.2469 0.0281,-0.0291 0.0734,-0.0367 0.10284,-0.0644 0.0949,-0.0891 0.11691,-0.23532 0.17692,-0.34479 0.0779,-0.232296 0.18147,-0.460009 0.28662,-0.676914 0.10252,-0.236752 0.3067,-0.30811 0.37501,-0.542331 0.76376,-0.610397 1.45402,-0.945133 2.48521,-1.475663 0.72876,-0.374933 -1.40911,0.837441 -2.12042,1.244495 -0.0593,0.03392 0.2054,-0.197214 0.16952,-0.115077 0.72681,-0.661872 1.64948,-1.020608 2.50933,-1.522266 0.95476,-0.557027 -2.76198,1.879943 -1.95735,1.143652 0.71138,-0.64643 0.0925,-0.09091 2.33028,-1.424123 0.0253,-0.0151 0.10808,-0.0466 0.0826,-0.0317 -2.95613,1.729408 -2.84434,1.484894 -1.98646,1.179451 0.0231,-0.02953 0.0331,-0.07614 0.0682,-0.08953 0.0181,-0.0069 0.0445,0.02669 0.057,0.01184 0.0237,-0.02818 0.004,-0.197653 0.0692,-0.215092 0.0192,-0.01034 0.13651,-0.07272 0.14585,-0.08197 0.0941,-0.09313 0.10168,-0.270053 0.23562,-0.332693 0.13405,-0.120098 0.28877,-0.214599 0.31566,-0.405894 0.0971,-0.170326 -0.0277,0.01802 0.0968,-0.09129 0.0779,-0.06842 0.10193,-0.186324 0.18196,-0.252796 0.15968,-0.110473 -0.0325,0.03742 0.10502,-0.126031 0.0828,-0.09836 0.2472,-0.12102 0.2936,-0.257053 0.22746,-0.159906 -0.0704,0.06274 0.13905,-0.141065 0.0378,-0.03681 0.12538,-0.06747 0.16387,-0.102578 0.0235,-0.0214 0.0378,-0.05103 0.0567,-0.07654 0.76053,-0.448904 1.52105,-0.897807 2.28158,-1.346711 -5.55475,3.242963 -0.0102,0.0089 0.16808,-0.107648 0.68241,-0.446102 -1.40757,0.823131 -2.11415,1.229878 -0.037,0.02131 0.0676,-0.05293 0.10509,-0.07334 0.23313,-0.126762 0.0351,0.03836 0.249,-0.170918 0.32163,-0.233169 0.5922,-0.541274 0.85004,-0.840898 0.3272,-0.315494 0.65928,-0.621323 1.01789,-0.901817 0,0 2.41467,-0.944793 2.41467,-0.944793 z"
       id="path123253"
       style="opacity:1;fill:#000000;fill-opacity:1;stroke:none;stroke-width:1.39999998;stroke-linecap:round;stroke-linejoin:round;stroke-miterlimit:4;stroke-dasharray:none;stroke-opacity:1" /><path
       inkscape:connector-curvature="0"
       d="m 161.88975,97.44326 c -0.0586,0.461297 -0.10129,0.921227 -0.20857,1.374355 -0.0502,0.210655 -0.0862,0.423573 -0.11118,0.638487 -0.0152,0.161475 -0.066,0.316228 -0.11355,0.472129 0,0 -2.35803,1.110929 -2.35803,1.110929 l 0,0 c 0.0287,-0.0857 0.0884,-0.19182 0.1046,-0.27598 0.006,-0.0336 -0.011,-0.0694 -0.002,-0.10246 0.005,-0.018 0.0264,-0.0264 0.0396,-0.0396 0.009,-0.23055 0.0565,-0.45736 0.10988,-0.681253 0.0993,-0.446911 0.21328,-0.886451 0.21755,-1.349617 0,0 2.32211,-1.14703 2.32211,-1.14703 z"
       id="path123255"
       style="opacity:1;fill:#000000;fill-opacity:1;stroke:none;stroke-width:1.39999998;stroke-linecap:round;stroke-linejoin:round;stroke-miterlimit:4;stroke-dasharray:none;stroke-opacity:1" /><path
       inkscape:connector-curvature="0"
       d="m 185.86643,75.237476 c 0.44381,-0.05796 0.88954,-0.09632 1.33592,-0.127679 0.26146,-0.05039 0.48358,0.0115 0.72798,0.0929 0.12707,0.0043 0.23202,0.07017 0.3445,0.108436 0.0183,0.0062 0.0386,-0.002 0.0578,-0.0029 0.0284,0.01276 0.0569,0.02552 0.0854,0.03828 0.17105,0.04448 0.29562,0.16554 0.45451,0.238163 0.15502,0.04689 0.29713,0.123416 0.45543,0.171238 0.14613,0.03132 0.29401,0.03734 0.44277,0.03818 0.15273,-0.0027 0.30548,-0.0011 0.45822,-0.0029 0,0 -2.10701,1.531934 -2.10701,1.531934 l 0,0 c -0.15645,-8.39e-4 -0.31317,0.0041 -0.46935,-0.0072 -0.16314,-0.01614 -0.32509,-0.04442 -0.47977,-0.100626 -0.16181,-0.0619 -0.32338,-0.125981 -0.47867,-0.201625 -0.14067,-0.08057 -0.27101,-0.169993 -0.4324,-0.207051 -0.16144,-0.03544 -0.31692,-0.103618 -0.48033,-0.137675 -0.21962,-0.06001 -0.43705,-0.04125 -0.66283,-0.02358 -0.44454,0.02899 -0.88758,0.07554 -1.32839,0.140369 0,0 2.07623,-1.548278 2.07623,-1.548278 z"
       id="path123257"
       style="opacity:1;fill:#000000;fill-opacity:1;stroke:none;stroke-width:1.39999998;stroke-linecap:round;stroke-linejoin:round;stroke-miterlimit:4;stroke-dasharray:none;stroke-opacity:1" /><path
       inkscape:connector-curvature="0"
       d="m 206.38263,72.149423 c -0.10375,0.391388 -0.20565,0.783155 -0.38052,1.149593 -0.0951,0.182935 -0.12395,0.375889 -0.25278,0.540044 -0.15405,0.265583 -0.37754,0.485676 -0.60462,0.689945 -0.20653,0.176964 -0.39353,0.368437 -0.57825,0.567467 -0.13265,0.153386 -0.27789,0.309525 -0.44826,0.420675 -0.85418,0.508154 -1.63974,1.226415 -2.61488,1.482206 5.63075,-3.212894 -0.11794,0.147684 -0.30348,0.183441 0,0 2.05321,-1.607099 2.05321,-1.607099 l 0,0 c 0.74924,-0.468553 0.18783,-0.116674 -2.09866,1.21331 -0.0324,0.01885 0.0663,-0.03507 0.0994,-0.05261 0.77038,-0.443927 1.54076,-0.887854 2.31114,-1.33178 0.93908,-0.34391 -2.93136,1.915393 -1.87738,1.051219 0.0532,-0.02986 0.11963,-0.03384 0.16936,-0.06913 0.0329,-0.02337 0.0461,-0.06706 0.0755,-0.09472 0.0783,-0.07361 0.193,-0.08224 0.24214,-0.189693 0.0549,-0.0633 0.10196,-0.133962 0.16268,-0.191736 0.0317,-0.03015 0.0756,-0.04678 0.10395,-0.0801 0.0321,-0.03777 0.0415,-0.09158 0.074,-0.129074 0.01,-0.01102 0.22556,-0.174447 0.23688,-0.183061 0.13816,-0.149625 0.33482,-0.280621 0.46,-0.423491 0.0348,-0.03974 0.0486,-0.09483 0.0825,-0.135323 0.022,-0.0262 0.0548,-0.04085 0.0822,-0.06128 0.0692,-0.170578 0.16302,-0.17806 0.18503,-0.228364 0.0364,-0.08319 -0.0108,-0.231337 0.0779,-0.304135 0.18893,-0.34763 0.33283,-0.706624 0.40759,-1.097641 0,0 2.3352,-1.11866 2.3352,-1.11866 z"
       id="path123259"
       style="opacity:1;fill:#000000;fill-opacity:1;stroke:none;stroke-width:1.39999998;stroke-linecap:round;stroke-linejoin:round;stroke-miterlimit:4;stroke-dasharray:none;stroke-opacity:1" /><path
       inkscape:connector-curvature="0"
       d="m 201.50949,77.140659 c 0.15066,-0.394689 0.23341,-0.803373 0.31311,-1.216102 0.0602,-0.193169 0.0977,-0.397805 0.1833,-0.581936 0.0595,-0.09275 0.0332,-0.04112 0.0748,-0.156782 0,0 2.40912,-0.993786 2.40912,-0.993786 l 0,0 c -0.10085,0.01306 -0.0623,-0.01311 -0.1023,0.0951 -0.12114,0.155365 -0.1609,0.332967 -0.22863,0.518328 -0.0827,0.262592 -0.0953,0.539977 -0.17358,0.80497 -0.022,0.07437 -0.0569,0.144379 -0.0806,0.218226 -0.021,0.0656 -0.0355,0.133109 -0.0533,0.199664 0,0 -2.34196,1.112317 -2.34196,1.112317 z"
       id="path123261"
       style="opacity:1;fill:#000000;fill-opacity:1;stroke:none;stroke-width:1.39999998;stroke-linecap:round;stroke-linejoin:round;stroke-miterlimit:4;stroke-dasharray:none;stroke-opacity:1" /><path
       inkscape:connector-curvature="0"
       d="m 222.50976,112.38094 c 0.45013,-0.23689 0.95395,-0.35258 1.41462,-0.56655 0.95114,-0.36801 2.30977,-1.21175 -1.48326,0.94042 0.0958,-0.006 5.92624,-3.4321 0.27642,-0.15018 -0.0228,0.0132 0.0512,-0.0172 0.0713,-0.0342 0.17821,-0.15102 -0.066,-0.006 0.11613,-0.10545 0.11916,-0.0953 0.23522,-0.20762 0.33649,-0.33204 0.0779,-0.10214 0.11426,-0.26234 0.20754,-0.34677 0.035,-0.11535 0.11876,-0.2046 0.18803,-0.29724 0.0564,-0.11953 0.14614,-0.18216 0.23436,-0.27414 0.0828,-0.11156 0.21355,-0.21187 0.33539,-0.28758 0.76889,-0.44887 1.56222,-0.85826 2.30666,-1.3466 0.68152,-0.44706 -1.41179,0.81495 -2.1176,1.22258 -0.0286,0.0165 0.0574,-0.0326 0.0859,-0.0492 0.77377,-0.45141 1.56901,-0.86796 2.32092,-1.35491 0.66276,-0.42921 -2.6615,1.68115 -2.05969,1.16998 0.67584,-0.62623 3.0759,-1.88744 2.40756,-0.80827 -0.21392,0.28963 -0.46512,0.54709 -0.70679,0.81303 -0.26787,0.31303 -0.54922,0.60364 -0.86228,0.87079 -0.92038,0.77483 -2.01089,1.28429 -3.05309,1.88376 0.70321,-0.40355 1.40492,-0.8097 2.10961,-1.21064 0.0563,-0.032 -0.0947,0.0898 -0.15029,0.12292 -0.76478,0.45471 -1.54837,0.87786 -2.30536,1.34542 -0.68019,0.42012 2.65041,-1.74914 2.08689,-1.18205 -0.15048,0.11829 -0.32174,0.21836 -0.46099,0.34786 -1.2076,0.83797 -1.69259,1.22074 -2.77134,1.41105 -0.17202,-0.15453 -0.21236,-0.33703 -0.1533,-0.55453 0.0765,-0.15567 0.18809,-0.29153 0.27342,-0.44173 0.18125,-0.2325 0.36531,-0.45401 0.6096,-0.62188 0.84677,-0.54653 0.0845,-0.0566 2.42017,-1.41487 0.0276,-0.016 0.0523,-0.0395 0.0833,-0.047 0.13846,-0.0336 0.31973,-0.0183 0.4617,-0.0251 0.0452,-0.003 0.0932,0.007 0.13563,-0.009 0.039,-0.0147 0.06,-0.0598 0.0973,-0.0785 0.15209,-0.0763 0.32035,-0.0356 0.46527,-0.13177 1.11181,-0.64203 -3.0101,1.82672 -1.775,0.98497 0.11576,-0.13362 0.25974,-0.22655 0.35218,-0.37995 0.14326,-0.12928 0.22326,-0.32398 0.38649,-0.43275 0.0877,-0.0785 0.11288,-0.16006 0.12282,-0.27353 0,0 2.37432,-1.07979 2.37432,-1.07979 l 0,0 c -0.0998,0.0397 -0.0225,0.24289 -0.10369,0.33048 -0.0711,0.14864 -0.12243,0.0876 -0.20282,0.20482 -0.0215,0.0314 -0.0232,0.0753 -0.0491,0.10315 -0.16757,0.17991 -0.0207,-0.12554 -0.12762,0.14644 -0.13207,0.0797 -0.08,0.13856 -0.16882,0.2349 -0.23138,0.25104 0.0644,-0.10631 -0.13401,0.0803 -0.0206,0.0193 -0.03,0.0478 -0.045,0.0718 -0.0674,0.0906 -0.13012,0.13857 -0.22623,0.19578 -1.55598,0.9263 -1.51016,1.08553 -2.44992,1.41844 -0.24973,0.0427 -0.47674,0.15834 -0.73342,0.15611 -0.0921,0.0128 -0.21252,0.0236 -0.30144,0.0577 -0.0658,0.0252 -0.11907,0.0768 -0.18526,0.10148 2.16111,-1.27234 2.7167,-1.78197 2.01966,-1.15629 -0.24427,0.14983 -0.48802,0.28701 -0.63111,0.55026 -0.0855,0.0602 -0.25481,0.30608 -0.28186,0.41476 -0.13525,0.0595 -0.0995,0.16611 -0.1521,0.0197 0.90029,-0.20388 2.07427,-1.1803 -1.73638,1.09928 0.2074,-0.0635 0.006,0.02 0.15288,-0.1071 0.0952,-0.0826 0.24954,-0.0972 0.31059,-0.22976 0.88619,-0.31467 1.06047,-0.37009 2.3641,-1.39541 0.64926,-0.51065 -1.424,0.8375 -2.13703,1.25449 -0.0267,0.0156 0.055,-0.0298 0.0781,-0.0504 0.0281,-0.025 0.0419,-0.0657 0.0741,-0.0851 0.76907,-0.46547 1.5499,-0.9112 2.32485,-1.36681 -3.84643,2.24104 -2.17328,1.33363 -1.36418,0.71122 0.14272,-0.12613 0.30844,-0.23292 0.44823,-0.35885 0.1596,-0.14378 0.27025,-0.34206 0.42369,-0.49209 0.25213,-0.24293 0.48246,-0.50919 0.70547,-0.77653 0.0401,-0.0435 0.0571,-0.12136 0.11447,-0.13586 0.0301,-0.008 0.0604,0.0427 0.0884,0.0293 3.67859,-1.75864 2.9361,-1.65985 2.1913,-1.08418 -0.78841,0.60265 -0.0514,0.0441 -2.37661,1.431 -0.66749,0.47294 1.40604,-0.83675 2.11652,-1.24224 0.032,-0.0183 -0.0461,0.0598 -0.0778,0.0787 -0.77123,0.45815 -1.5348,0.93109 -2.32784,1.35038 -0.72955,0.38571 1.42481,-0.83306 2.13722,-1.2496 -0.0535,0.0457 -0.13156,0.0663 -0.18054,0.1108 -0.0584,0.0531 -0.0742,0.13073 -0.17519,0.11617 -0.0283,0.0388 -0.0781,0.14287 -0.11598,0.16611 -0.0464,0.0285 -0.0807,-0.0168 -0.12629,0.0911 -0.022,0.032 -0.0235,0.0783 -0.0528,0.10373 -0.0149,0.013 -0.0427,-3.6e-4 -0.0581,0.0121 -0.0483,0.039 -0.0125,0.13542 -0.098,0.13331 -0.0427,0.21934 0.0264,-0.0442 -0.0663,0.11125 -0.046,0.0772 -0.0562,0.18729 -0.13543,0.25172 -0.0453,0.12602 -0.0725,0.12882 -0.14069,0.22679 -0.0209,0.03 -0.0175,0.0753 -0.0439,0.10064 -0.018,0.0172 -0.0558,-0.005 -0.0738,0.0122 -0.0243,0.0233 -0.0245,0.0627 -0.0368,0.0941 -0.0184,0.0193 -0.0368,0.0386 -0.0551,0.0579 -0.0258,0.004 -0.0574,-0.004 -0.0775,0.0124 -0.0268,0.0222 -0.0191,0.0742 -0.0488,0.0924 -0.75803,0.46182 -1.53217,0.89669 -2.30146,1.3395 -0.032,0.0184 -0.13365,0.0626 -0.1018,0.0438 0.70515,-0.41427 1.41492,-0.8206 2.12238,-1.23091 -1.04279,0.59849 -1.90372,1.18001 -2.96501,1.60093 -0.4819,0.1787 -0.96148,0.36365 -1.44397,0.54023 0,0 2.05689,-1.57282 2.05689,-1.57282 z"
       id="path123263"
       style="opacity:1;fill:#000000;fill-opacity:1;stroke:none;stroke-width:1.39999998;stroke-linecap:round;stroke-linejoin:round;stroke-miterlimit:4;stroke-dasharray:none;stroke-opacity:1" /><path
       inkscape:connector-curvature="0"
       d="m 206.47156,118.03309 c 0.48866,0.0244 0.96376,-0.11649 1.44445,-0.16607 0.35619,-0.0194 0.713,-0.0225 1.06961,-0.0176 0.32255,0.006 0.64513,0.0112 0.96774,0.0102 0.40082,-0.0293 0.78803,0.0292 1.1813,0.096 0.20422,0.0505 0.41178,0.0664 0.62099,0.0748 0.0925,0.002 0.0401,-0.007 0.15204,0.0486 0,0 -2.14825,1.47181 -2.14825,1.47181 l 0,0 c -0.085,0.002 -0.0443,0.004 -0.12203,-0.004 -0.2095,-0.0213 -0.41539,-0.0612 -0.62134,-0.1045 -0.38294,-0.0621 -0.76655,-0.0754 -1.1543,-0.0639 -0.32704,-0.003 -0.65415,0.002 -0.98115,-0.004 -0.34436,-0.005 -0.69004,-0.008 -1.03231,0.0369 -0.48703,0.0787 -0.97743,0.15038 -1.47225,0.14454 0,0 2.0955,-1.52247 2.0955,-1.52247 z"
       id="path123265"
       style="opacity:1;fill:#000000;fill-opacity:1;stroke:none;stroke-width:1.39999998;stroke-linecap:round;stroke-linejoin:round;stroke-miterlimit:4;stroke-dasharray:none;stroke-opacity:1" /><path
       inkscape:connector-curvature="0"
       d="m 207.34518,119.67443 c 0.50358,0.13373 1.02088,0.20478 1.5388,0.25338 0.36578,0.0274 0.73273,0.0303 1.09933,0.0272 0.19266,-0.0315 0.45069,0.0626 0.61655,-0.0512 0.13751,-0.10468 0.26617,-0.10432 0.42815,-0.12833 0.2101,0.005 0.42021,-0.003 0.63031,-0.003 0.20978,0.0905 0.28566,0.29405 0.32435,0.50437 0.0297,0.21613 0.0208,0.43533 0.0196,0.65293 0.008,0.29695 -0.004,0.58968 -0.0495,0.88318 -0.0498,0.29491 -0.0777,0.59253 -0.11142,0.88944 -0.0136,0.16627 -0.01,0.33314 -0.0202,0.49947 -0.0647,0.18863 -0.12518,0.37966 -0.18999,0.56885 -0.0847,0.38235 -0.12961,0.77033 -0.21247,1.15338 -0.018,0.18074 -0.1124,0.34376 -0.13237,0.52098 -0.0111,0.18198 0.008,0.36393 0.0103,0.54588 -0.0198,0.16978 0.0316,0.26512 0.11179,0.40604 0.12674,0.12433 0.18773,0.33216 0.24439,0.49674 0.10388,0.35836 0.22308,0.71711 0.39908,1.04711 0.1162,0.17888 0.20932,0.37293 0.2666,0.57821 0.0559,0.22652 -0.0272,0.43127 -0.0782,0.64767 -0.0348,0.13924 -0.0525,0.28233 -0.0585,0.42556 0,0 -2.32889,1.17503 -2.32889,1.17503 l 0,0 c 0.006,-0.15864 0.0136,-0.31655 0.0418,-0.47326 0.0432,-0.18178 0.11513,-0.35837 0.13,-0.53764 -0.0372,-0.18979 -0.12004,-0.36468 -0.22291,-0.52901 -0.17646,-0.34351 -0.29537,-0.71388 -0.4204,-1.0784 -0.0576,-0.16222 -0.12155,-0.324 -0.23413,-0.4568 -0.083,-0.16996 -0.19924,-0.31093 -0.16587,-0.51461 -0.006,-0.18581 -0.007,-0.37198 -0.0239,-0.55729 -9.9e-4,-0.08 -0.0121,-0.21008 0.0113,-0.28291 0.008,-0.0241 0.0417,-0.032 0.0528,-0.0547 0.036,-0.074 0.0185,-0.16731 0.0587,-0.23982 0.11242,-0.37921 0.16203,-0.76317 0.21379,-1.15435 0.0347,-0.19113 0.0885,-0.39235 0.17547,-0.5666 0.0927,-0.11937 0.007,-0.31424 0.0466,-0.45691 0.0129,-0.30636 0.084,-0.60795 0.11645,-0.91249 0.0397,-0.28197 0.073,-0.55834 0.0552,-0.84452 5.2e-4,-0.20565 0.003,-0.41151 -0.008,-0.61695 -0.007,-0.091 -5.5e-4,-0.22895 -0.128,-0.18664 -0.20216,0.002 -0.40758,-0.005 -0.60608,0.0388 -0.14413,0.0289 -0.26112,0.13753 -0.41463,0.14122 -0.21558,-0.008 -0.4315,-9e-4 -0.6472,-0.006 -0.36916,-0.008 -0.73882,-0.0117 -1.10594,-0.056 -0.52828,-0.0686 -1.05416,-0.15764 -1.57224,-0.28272 0,0 2.13912,-1.46498 2.13912,-1.46498 z"
       id="path123267"
       style="opacity:1;fill:#000000;fill-opacity:1;stroke:none;stroke-width:1.39999998;stroke-linecap:round;stroke-linejoin:round;stroke-miterlimit:4;stroke-dasharray:none;stroke-opacity:1" /><path
       inkscape:connector-curvature="0"
       d="m 211.4857,130.05319 c 0.0101,0.39641 0.17784,0.75714 0.28256,1.13273 0.0209,0.15691 0.12339,0.26879 0.17363,0.41812 0.0273,0.0734 0.0366,0.15033 0.0461,0.2274 0,0 -2.3094,1.20412 -2.3094,1.20412 l 0,0 c -0.003,-0.0624 -0.005,-0.12502 -0.024,-0.18518 -0.0269,-0.15556 -0.18179,-0.26089 -0.17113,-0.42955 -0.0844,-0.39213 -0.25403,-0.76081 -0.29065,-1.16322 0,0 2.29287,-1.20442 2.29287,-1.20442 z"
       id="path123269"
       style="opacity:1;fill:#000000;fill-opacity:1;stroke:none;stroke-width:1.39999998;stroke-linecap:round;stroke-linejoin:round;stroke-miterlimit:4;stroke-dasharray:none;stroke-opacity:1" /><path
       inkscape:connector-curvature="0"
       d="m 182.32446,116.27893 c -0.0131,0.53542 -0.0125,1.07124 -0.004,1.60675 0.002,0.3436 0.002,0.68723 0.006,1.03082 -0.005,0.33882 -0.005,0.67774 -9.5e-4,1.01658 -0.004,0.29856 0.002,0.59714 1.5e-4,0.89568 0.003,0.22125 0.003,0.4425 0.002,0.66378 -0.0125,0.13868 0.0329,0.2483 0.0849,0.37426 0.0674,0.14688 0.0796,0.31267 0.0865,0.47208 0.002,0.22106 0.10029,0.42429 0.14281,0.64072 0.0291,0.13259 0.0379,0.2672 0.0397,0.4025 -6.1e-4,0.17118 -0.003,0.34235 -0.002,0.51352 0.0347,0.1676 0.0676,0.34767 0.13624,0.50604 0.0607,0.25252 0.20565,0.46373 0.30365,0.70187 0.0553,0.1835 0.0853,0.37183 0.0872,0.56312 0.012,0.1269 -0.0107,0.25619 0.001,0.38264 0.0795,0.14565 0.1128,0.30951 0.14086,0.47146 0.0243,0.15792 0.0249,0.31748 0.0309,0.47669 -0.002,0.13901 0.002,0.27802 -0.002,0.41702 -4e-4,0.17491 -0.002,0.34984 -3.3e-4,0.52479 0,0 -2.32075,1.18242 -2.32075,1.18242 l 0,0 c 0.002,-0.17513 3e-4,-0.35024 4.1e-4,-0.52534 -0.004,-0.13763 0.002,-0.27524 -5.5e-4,-0.41287 0.003,-0.14892 0.001,-0.29806 -0.0106,-0.44661 -0.0182,-0.15331 -0.0415,-0.30395 -0.12473,-0.43752 -0.0534,-0.14663 -0.0385,-0.29369 -0.0331,-0.4484 -0.002,-0.1625 -5.1e-4,-0.32525 -0.0405,-0.48431 -0.0822,-0.23923 -0.24188,-0.43425 -0.29805,-0.68401 -0.0911,-0.19118 -0.11244,-0.40786 -0.19031,-0.6055 0.001,-0.16984 0.001,-0.33971 3.2e-4,-0.50955 -1.6e-4,-0.12281 0.003,-0.24591 -0.0154,-0.36784 -0.0328,-0.23181 -0.13193,-0.44288 -0.15936,-0.67071 -0.004,-0.13036 0.001,-0.26971 -0.0477,-0.39181 -0.0586,-0.15182 -0.14887,-0.29701 -0.12534,-0.46453 -8e-4,-0.22211 -9.9e-4,-0.44419 0.002,-0.66625 -0.002,-0.2986 0.004,-0.59723 1.6e-4,-0.89584 0.004,-0.33852 0.004,-0.67711 -9.6e-4,-1.01561 0.004,-0.34574 0.005,-0.69153 0.006,-1.03728 0.009,-0.5342 0.01,-1.06873 -0.004,-1.60284 0,0 2.30786,-1.17592 2.30786,-1.17592 z"
       id="path123271"
       style="opacity:1;fill:#000000;fill-opacity:1;stroke:none;stroke-width:1.39999998;stroke-linecap:round;stroke-linejoin:round;stroke-miterlimit:4;stroke-dasharray:none;stroke-opacity:1" /><path
       inkscape:connector-curvature="0"
       d="m 175.19445,121.98533 c 0.10999,0.37517 0.16116,0.76593 0.31195,1.12806 0.0925,0.20305 0.15174,0.41379 0.17605,0.63504 0.0176,0.18831 0.0158,0.37763 0.0187,0.56654 -0.007,0.10252 0.0383,0.22038 0.1062,0.29809 0.0938,0.1255 0.16071,0.25998 0.20652,0.40921 0.0324,0.13152 0.0361,0.26686 0.036,0.40153 -4.2e-4,0.13737 8.1e-4,0.27462 -4.3e-4,0.41197 -4.6e-4,0.16091 -0.006,0.32204 -5.8e-4,0.4829 0.008,0.13071 -0.0253,0.27002 0.0242,0.39393 0.0561,0.14918 0.12456,0.29072 0.15994,0.4466 0.0224,0.13374 0.003,0.26861 0.001,0.4028 -0.007,0.0971 -0.008,0.19428 -0.009,0.29153 -0.008,0.0952 0.0287,0.19197 -0.0811,0.21961 0,0 -2.38129,1.05805 -2.38129,1.05805 l 0,0 c 0.0307,-0.21846 0.009,-0.0382 0.13517,-0.094 7.1e-4,-0.10102 0.002,-0.2019 0.005,-0.30293 0.0115,-0.11904 0.0108,-0.23914 0.0238,-0.35819 -0.004,-0.14087 -0.0848,-0.25298 -0.12586,-0.38787 -0.0715,-0.1616 -0.087,-0.31032 -0.0752,-0.48582 0.005,-0.1611 1.5e-4,-0.32245 2.9e-4,-0.48361 -3.6e-4,-0.1371 0.003,-0.27404 0.002,-0.41116 -8.1e-4,-0.11382 0.002,-0.22783 -0.008,-0.3414 -0.0259,-0.12311 -0.077,-0.22747 -0.15646,-0.32652 -0.0851,-0.12571 -0.17568,-0.29256 -0.18506,-0.44251 0.004,-0.18247 0.004,-0.36512 -0.003,-0.54751 -0.0128,-0.19816 -0.0525,-0.38807 -0.13423,-0.57062 -0.1468,-0.37435 -0.19549,-0.77199 -0.32354,-1.15282 0,0 2.27645,-1.24088 2.27645,-1.24088 z"
       id="path123273"
       style="opacity:1;fill:#000000;fill-opacity:1;stroke:none;stroke-width:1.39999998;stroke-linecap:round;stroke-linejoin:round;stroke-miterlimit:4;stroke-dasharray:none;stroke-opacity:1" /><path
       inkscape:connector-curvature="0"
       d="m 211.29778,131.81282 c -0.0113,0.41578 -0.005,0.83178 0.002,1.24758 0.002,0.14039 2.6e-4,0.28091 0.006,0.42123 0,0 -2.322,1.18312 -2.322,1.18312 l 0,0 c 0.005,-0.1422 0.003,-0.28458 0.006,-0.42685 0.007,-0.41633 0.0129,-0.83286 0.002,-1.24916 0,0 2.30786,-1.17592 2.30786,-1.17592 z"
       id="path123275"
       style="opacity:1;fill:#000000;fill-opacity:1;stroke:none;stroke-width:1.39999998;stroke-linecap:round;stroke-linejoin:round;stroke-miterlimit:4;stroke-dasharray:none;stroke-opacity:1" /><path
       inkscape:connector-curvature="0"
       d="m 219.13825,87.494589 c -0.0565,0.381717 -0.1067,0.765253 -0.1334,1.15035 -0.0281,0.205596 0.0161,0.426568 -0.0823,0.615616 -0.0754,0.171667 -0.12122,0.327821 -0.14081,0.514842 -0.0573,0.214806 -0.09,0.441428 -0.18642,0.642893 -0.0896,0.202229 -0.11697,0.428661 -0.25828,0.604269 -0.11015,0.1453 -0.16797,0.310416 -0.21647,0.482935 -0.059,0.152233 -0.1328,0.276438 -0.15975,0.441272 -0.0279,0.179097 -0.0246,0.360252 -0.0253,0.540819 0.002,0.146572 0.0129,0.29301 -0.0377,0.432751 -0.0883,0.06148 -0.10969,0.194051 -0.12633,0.296 -0.01,0.121546 -0.006,0.243416 -0.01,0.365116 0.004,0.137385 -3e-5,0.274724 -2.3e-4,0.412152 0.003,0.189666 -0.003,0.379215 -4.9e-4,0.568914 -0.007,0.229988 -0.004,0.454111 0.0343,0.681286 0.0362,0.153686 0.0176,0.0816 0.055,0.216522 0,0 -2.28634,1.239931 -2.28634,1.239931 l 0,0 c -0.0369,-0.148008 -0.0181,-0.0691 -0.0559,-0.236888 -0.05,-0.239404 -0.084,-0.473838 -0.0651,-0.71977 0.002,-0.18938 -0.003,-0.378601 -8.3e-4,-0.56795 -4.8e-4,-0.136983 -0.005,-0.273846 -0.002,-0.410808 -0.005,-0.127055 -0.001,-0.254557 0.004,-0.381521 -0.002,-0.155267 0.0209,-0.29187 0.0524,-0.440463 0.15563,-0.06617 0.11708,-0.119288 0.11811,-0.273357 3.7e-4,-0.190358 0.001,-0.381514 0.0123,-0.571343 0.0178,-0.174285 0.007,-0.363014 0.13683,-0.491197 0.0796,-0.175931 0.0779,-0.375522 0.19352,-0.539198 0.018,-0.03437 0.036,-0.06874 0.0539,-0.103106 0.025,-0.01376 0.0572,-0.0189 0.0749,-0.04128 0.0889,-0.11265 0.11085,-0.294251 0.14393,-0.427797 0.0159,-0.03431 0.0269,-0.07128 0.0475,-0.102932 0.0195,-0.02988 0.0581,-0.04654 0.0716,-0.0796 0.049,-0.120448 0.0112,-0.288407 0.0939,-0.403302 0.0433,-0.130149 -0.008,-0.282126 0.0439,-0.407297 0.009,-0.02267 0.0419,-0.02876 0.0538,-0.05021 0.015,-0.02706 0.0159,-0.05982 0.0238,-0.08974 0.0281,-0.120828 0.0849,-0.117882 0.1022,-0.196393 0.0252,-0.114717 -0.0125,-0.248412 0.0152,-0.363579 0.0428,-0.387215 0.0866,-0.774189 0.13465,-1.160915 0,0 2.32212,-1.14703 2.32212,-1.14703 z"
       id="path123277"
       style="opacity:1;fill:#000000;fill-opacity:1;stroke:none;stroke-width:1.39999998;stroke-linecap:round;stroke-linejoin:round;stroke-miterlimit:4;stroke-dasharray:none;stroke-opacity:1" /><path
       inkscape:connector-curvature="0"
       d="m 204.31522,106.55133 c -3.90978,2.22064 -1.9204,1.16375 -1.09194,0.53934 0.83179,-0.61955 0.35934,-0.2758 2.47965,-1.42284 0.13872,-0.075 0.30537,0.002 0.43525,-0.0917 0.0883,0.0169 0.15163,-0.0811 0.22632,-0.0977 0.0303,-0.007 0.0653,0.0135 0.0931,-2.1e-4 0.1968,-0.0965 -0.097,-0.0511 0.098,-0.0709 0.16329,0.0607 0.2764,-0.0396 0.40902,-0.13088 0.0359,-0.0133 0.0732,-0.0232 0.10773,-0.0398 0.1239,-0.0596 0.0967,-0.0748 0.22186,-0.10907 0.11297,-0.0309 0.19366,-0.009 0.29819,-0.0677 0.0282,-0.0248 0.10749,-0.10299 0.15348,-0.11504 0.0337,-0.009 0.13462,-0.0213 0.10456,-0.004 -0.71843,0.42276 -1.45347,0.81664 -2.18016,1.22503 -0.0544,0.0306 0.10813,-0.0628 0.15876,-0.0993 0.7693,-0.43582 1.53117,-0.88503 2.3079,-1.30747 0.12635,-0.001 0.0708,0.0179 0.16668,-0.0496 0.0212,-0.0149 0.0862,-0.0575 0.0637,-0.0447 -2.29638,1.30794 -2.92765,1.61516 -2.13446,1.22765 1.70112,-1.12744 1.57681,-1.30195 2.70969,-1.30458 0.19068,-0.002 0.38133,0.002 0.57204,0.002 0.0285,-1.7e-4 0.0582,0.008 0.0856,-5.2e-4 0.0262,-0.008 0.0439,-0.0332 0.0685,-0.045 0.13644,-0.0655 0.30879,-0.0824 0.45688,-0.0951 0.0325,-0.0186 0.0611,-0.0469 0.0975,-0.0558 0.128,-0.0311 0.27064,-0.01 0.40344,-0.0701 0.23662,-0.10766 -0.0522,-0.0466 0.21542,-0.0861 0.1334,-0.0591 0.31744,0.0474 0.44583,-0.006 0.36679,-0.15349 -0.29432,-0.0194 0.2171,-0.10088 0.15032,-0.11903 0.3369,-0.16265 0.51657,-0.21708 0,0 -2.05609,1.59643 -2.05609,1.59643 l 0,0 c -0.17532,0.063 -0.33793,0.15706 -0.51961,0.19995 -0.21444,0.0824 -0.44648,0.028 -0.6629,0.11437 -0.22885,0.10634 -0.49136,0.11905 -0.73265,0.18411 -0.21257,0.0506 -0.41896,0.13482 -0.64041,0.11055 -0.18923,-0.001 -0.37846,-1e-4 -0.56763,0.005 -0.91169,0.0519 -2.30741,1.27184 1.82255,-1.17777 -0.72501,0.5842 -0.099,0.0834 -2.3311,1.34706 -0.73233,0.41462 -3.4547,-1.03767 1.92335,-1.16903 -0.10325,0.0569 -0.0508,0.0223 -0.15468,0.10752 -0.75295,0.43069 -1.67783,1.05218 -2.5644,1.42445 -0.21909,0.0328 -0.40611,0.15192 -0.60136,0.25162 -0.14447,0.0587 -0.30457,0.0449 -0.43126,0.11461 -0.0648,0.0614 -0.32863,0.1043 -0.42389,0.15025 -0.10005,0.005 -0.19662,0.0207 -0.29169,0.0546 -0.0413,0.0147 -0.15898,0.0733 -0.12122,0.051 1.87692,-1.10793 2.83344,-1.59377 1.95742,-1.14596 -0.099,0.0775 -0.18984,0.16552 -0.29258,0.23795 -0.24035,0.16947 -0.16444,0.0721 -0.42951,0.24773 -0.0744,0.0493 -0.14071,0.10994 -0.21107,0.16491 -0.79698,0.46592 -1.59396,0.93184 -2.39094,1.39777 0,0 2.0135,-1.62902 2.0135,-1.62902 z"
       id="path123281"
       style="opacity:1;fill:#000000;fill-opacity:1;stroke:none;stroke-width:1.39999998;stroke-linecap:round;stroke-linejoin:round;stroke-miterlimit:4;stroke-dasharray:none;stroke-opacity:1" /></g></svg>